# xmcd CD database file
#
# Track frame offsets:
#	150
#	11330
#	24725
#	39157
#	52647
#	62655
#	72905
#	88042
#	99070
#	115427
#	127335
#	137417
#	153072
#	163520
#	175290
#	185292
#	199767
#	210272
#	222140
#	231760
#	241435
#	254532
#	265642
#	278550
#	290347
#	302537
#	314510
#	325475
#	338435
#
# Disc length: 4658 seconds
#
# Revision: 0
# Processed by: cddbd v1.4PL0 Copyright (c) Steve Scherf et al.
# Submitted via: CDex 1.50Beta7
#
DISCID=8712301d
DTITLE=Bill Monroe - Blue Moon Of Kentucky 1936-1949 [CD1]
DYEAR=2002
DGENRE=Country
TTITLE0=My Long Journey Home (1936)
TTITLE1=What is a Home without Love¿ (1936)
TTITLE2=What Would You Give in Exchange¿ (1936)
TTITLE3=Little Red Shoes (1936)
TTITLE4=Nine Pound Hammer is Too Heavy (1936)
TTITLE5=On Some Foggy Mountain Top (1936)
TTITLE6=Drifting Too Far from the Shore (1936)
TTITLE7=In My Dear Old Southern Home (1936)
TTITLE8=New River Train (1936)
TTITLE9=This World is Not My Home (1936)
TTITLE10=Watermelon Hangin' on That Vine (1936)
TTITLE11=On the Banks of the Ohio (1937)
TTITLE12=Do You Call That Religion¿ (1937)
TTITLE13=God Holds the Future in His Hands (1936)
TTITLE14=You've Got to Walk That Lonesome Valley (1936)
TTITLE15=Six Months Ain't Long (1936)
TTITLE16=Just a Song of Old Kentucky (1936)
TTITLE17=Don't Forget Me (1936)
TTITLE18=I'm Going (1937)
TTITLE19=Darling Corey (1936)
TTITLE20=My Saviour's Train (1936)
TTITLE21=I Am Thinking Tonight of the Old Folks (1936)
TTITLE22=Dreamed I Searched Heaven for You (1936)
TTITLE23=The Old Cross Road (1936)
TTITLE24=The Forgotten Soldier Boy (1936)
TTITLE25=We Read of a Place That's Called Heaven (1936)
TTITLE26=Will the Circle be Unbroken¿ (1936)
TTITLE27=The Saints Go Marching In (1936)
TTITLE28=Roll in My Sweet Baby's Arms (1936)
EXTD=YEAR: 2002
EXTT0=
EXTT1=
EXTT2=
EXTT3=
EXTT4=
EXTT5=
EXTT6=
EXTT7=
EXTT8=
EXTT9=
EXTT10=
EXTT11=
EXTT12=
EXTT13=
EXTT14=
EXTT15=
EXTT16=
EXTT17=
EXTT18=
EXTT19=
EXTT20=
EXTT21=
EXTT22=
EXTT23=
EXTT24=
EXTT25=
EXTT26=
EXTT27=
EXTT28=
PLAYORDER=
